<?xml version="1.0" standalone="no"?>
<!DOCTYPE svg PUBLIC "-//W3C//DTD SVG 20010904//EN"
 "http://www.w3.org/TR/2001/REC-SVG-20010904/DTD/svg10.dtd">
<svg version="1.0" xmlns="http://www.w3.org/2000/svg"
 width="800.000000pt" height="500.000000pt" viewBox="0 0 800.000000 500.000000"
 preserveAspectRatio="xMidYMid meet">

<g transform="translate(0.000000,500.000000) scale(0.100000,-0.100000)"
fill="#000000" stroke="none">
<path d="M4460 2890 c63 -10 129 -18 145 -18 17 0 -22 8 -85 18 -63 10 -128
18 -145 18 -16 0 22 -8 85 -18z"/>
<path d="M3045 2876 c320 -25 489 -60 745 -153 251 -91 469 -216 722 -413 71
-55 275 -263 343 -350 76 -96 102 -123 64 -66 -51 77 -143 183 -253 289 -333
324 -698 530 -1125 637 -182 46 -298 61 -491 65 l-175 4 170 -13z"/>
<path d="M4655 2861 c11 -5 45 -11 75 -14 l55 -6 -60 14 c-67 16 -102 19 -70
6z"/>
<path d="M3733 2263 c15 -2 37 -2 50 0 12 2 0 4 -28 4 -27 0 -38 -2 -22 -4z"/>
<path d="M3953 2263 c15 -2 39 -2 55 0 15 2 2 4 -28 4 -30 0 -43 -2 -27 -4z"/>
<path d="M3062 2140 c0 -14 2 -19 5 -12 2 6 2 18 0 25 -3 6 -5 1 -5 -13z"/>
<path d="M3031 2084 c-6 -15 -9 -29 -7 -32 3 -2 10 8 16 23 14 36 7 43 -9 9z"/>
<path d="M3367 2040 c-37 -125 -55 -200 -48 -195 5 2 19 46 31 97 13 51 27 98
32 105 5 7 8 20 6 30 -3 11 -11 -4 -21 -37z"/>
<path d="M3191 1894 c0 -11 3 -14 6 -6 3 7 2 16 -1 19 -3 4 -6 -2 -5 -13z"/>
<path d="M2930 1867 c-10 -22 -24 -34 -45 -38 -22 -5 -24 -7 -8 -8 34 -2 53 9
68 40 13 24 22 28 62 32 l48 3 -55 2 c-53 2 -56 0 -70 -31z"/>
<path d="M3996 1892 c-2 -4 12 -6 32 -4 56 5 62 10 15 11 -23 1 -44 -3 -47 -7z"/>
<path d="M3103 1823 c15 -2 39 -2 55 0 15 2 2 4 -28 4 -30 0 -43 -2 -27 -4z"/>
<path d="M3228 1823 c12 -2 32 -2 45 0 12 2 2 4 -23 4 -25 0 -35 -2 -22 -4z"/>
<path d="M3463 1823 c15 -2 37 -2 50 0 12 2 0 4 -28 4 -27 0 -38 -2 -22 -4z"/>
<path d="M3723 1823 c15 -2 37 -2 50 0 12 2 0 4 -28 4 -27 0 -38 -2 -22 -4z"/>
<path d="M3873 1823 c15 -2 37 -2 50 0 12 2 0 4 -28 4 -27 0 -38 -2 -22 -4z"/>
<path d="M4138 1823 c12 -2 30 -2 40 0 9 3 -1 5 -23 4 -22 0 -30 -2 -17 -4z"/>
<path d="M3471 563 l0 -28 11 25 11 25 8 -30 8 -30 -2 30 c-3 41 -37 49 -36 8z"/>
<path d="M3530 573 c0 -10 4 -14 8 -8 4 6 11 13 16 18 5 4 2 7 -7 7 -10 0 -17
-8 -17 -17z"/>
<path d="M3583 574 c-3 -8 2 -22 11 -30 9 -8 11 -9 6 -2 -14 17 -13 41 2 32 7
-4 8 -3 4 4 -10 16 -15 15 -23 -4z"/>
<path d="M3638 568 c4 -16 7 -18 10 -8 3 8 10 18 16 22 6 5 2 8 -11 8 -17 0
-20 -4 -15 -22z"/>
<path d="M3682 565 c0 -16 2 -22 5 -12 2 9 2 23 0 30 -3 6 -5 -1 -5 -18z"/>
<path d="M3712 560 c0 -19 2 -27 5 -17 2 9 2 25 0 35 -3 9 -5 1 -5 -18z"/>
<path d="M3745 579 c-4 -5 -4 -13 -1 -16 3 -4 6 0 6 8 0 11 2 11 10 -1 6 -9
10 -10 10 -3 0 17 -17 25 -25 12z"/>
<path d="M3792 570 c0 -14 2 -19 5 -12 2 6 2 18 0 25 -3 6 -5 1 -5 -13z"/>
<path d="M3822 570 c0 -14 2 -19 5 -12 2 6 2 18 0 25 -3 6 -5 1 -5 -13z"/>
<path d="M3836 549 c-4 -23 -5 -44 -2 -46 2 -2 7 14 11 37 4 23 5 43 2 46 -2
3 -7 -14 -11 -37z"/>
<path d="M3887 583 c-4 -3 -7 -11 -7 -17 0 -6 5 -5 12 2 6 6 9 14 7 17 -3 3
-9 2 -12 -2z"/>
<path d="M3933 545 c0 -27 2 -38 4 -22 2 15 2 37 0 50 -2 12 -4 0 -4 -28z"/>
<path d="M3983 555 c0 -22 2 -30 4 -17 2 12 2 30 0 40 -3 9 -5 -1 -4 -23z"/>
<path d="M4022 543 l1 -48 4 43 c4 45 19 56 26 20 5 -20 5 -20 4 2 -1 15 -9
26 -19 28 -15 3 -18 -4 -16 -45z"/>
<path d="M4085 561 c-4 -18 -4 -35 -1 -38 3 -4 6 5 6 18 0 19 2 21 10 9 9 -13
10 -13 10 0 0 8 -4 21 -9 29 -6 10 -11 5 -16 -18z"/>
<path d="M4132 543 l1 -48 4 43 c4 45 19 56 26 20 5 -20 5 -20 4 2 -1 15 -9
26 -19 28 -15 3 -18 -4 -16 -45z"/>
<path d="M4190 580 c0 -5 7 -7 15 -4 8 4 15 8 15 10 0 2 -7 4 -15 4 -8 0 -15
-4 -15 -10z"/>
<path d="M4231 563 c1 -23 2 -24 6 -5 5 26 19 29 27 5 4 -14 4 -14 3 2 -1 11
-10 21 -20 23 -13 3 -17 -3 -16 -25z"/>
<path d="M4293 575 c-3 -9 2 -24 11 -34 20 -22 21 -35 1 -27 -8 3 -15 1 -15
-4 0 -13 27 -13 35 1 4 5 0 18 -9 28 -21 23 -21 45 0 37 8 -3 12 -2 9 4 -9 15
-25 12 -32 -5z"/>
<path d="M4367 584 c-4 -4 -6 -23 -6 -43 1 -27 3 -29 6 -11 8 48 13 56 24 40
9 -13 10 -13 7 -1 -5 17 -21 25 -31 15z"/>
<path d="M4424 576 c-3 -8 -4 -23 -1 -33 3 -11 5 -7 6 11 1 26 3 27 19 15 15
-13 16 -12 3 4 -16 21 -20 21 -27 3z"/>
<path d="M4470 571 c0 -12 5 -21 10 -21 6 0 10 6 10 14 0 8 -4 18 -10 21 -5 3
-10 -3 -10 -14z"/>
<path d="M4511 573 c1 -10 5 -31 9 -48 7 -27 8 -25 9 18 0 26 -3 47 -9 47 -5
0 -9 -8 -9 -17z"/>
<path d="M3902 525 c0 -16 2 -22 5 -12 2 9 2 23 0 30 -3 6 -5 -1 -5 -18z"/>
<path d="M3642 520 c0 -14 2 -19 5 -12 2 6 2 18 0 25 -3 6 -5 1 -5 -13z"/>
<path d="M3470 515 c0 -8 4 -15 10 -15 5 0 7 7 4 15 -4 8 -8 15 -10 15 -2 0
-4 -7 -4 -15z"/>
<path d="M3681 514 c0 -11 3 -14 6 -6 3 7 2 16 -1 19 -3 4 -6 -2 -5 -13z"/>
<path d="M3875 519 c-4 -6 -5 -12 -2 -15 2 -3 7 2 10 11 7 17 1 20 -8 4z"/>
</g>
</svg>
